<svg xmlns="http://www.w3.org/2000/svg" aria-hidden="true" style="position: absolute; width: 0; height: 0; overflow: hidden;">
  <defs>
    <symbol id="javascript" viewBox="0 0 128 128">
        <path fill="aliceblue" d="M2 1v125h125v-125h-125zm66.119 106.513c-1.845 3.749-5.367 6.212-9.448 7.401-6.271 1.44-12.269.619-16.731-2.059-2.986-1.832-5.318-4.652-6.901-7.901l9.52-5.83c.083.035.333.487.667 1.071 1.214 2.034 2.261 3.474 4.319 4.485 2.022.69 6.461 1.131 8.175-2.427 1.047-1.81.714-7.628.714-14.065-.001-10.115.046-20.188.046-30.188h11.709c0 11 .06 21.418 0 32.152.025 6.58.596 12.446-2.07 17.361zm48.574-3.308c-4.07 13.922-26.762 14.374-35.83 5.176-1.916-2.165-3.117-3.296-4.26-5.795 4.819-2.772 4.819-2.772 9.508-5.485 2.547 3.915 4.902 6.068 9.139 6.949 5.748.702 11.531-1.273 10.234-7.378-1.333-4.986-11.77-6.199-18.873-11.531-7.211-4.843-8.901-16.611-2.975-23.335 1.975-2.487 5.343-4.343 8.877-5.235l3.688-.477c7.081-.143 11.507 1.727 14.756 5.355.904.916 1.642 1.904 3.022 4.045-3.772 2.404-3.76 2.381-9.163 5.879-1.154-2.486-3.069-4.046-5.093-4.724-3.142-.952-7.104.083-7.926 3.403-.285 1.023-.226 1.975.227 3.665 1.273 2.903 5.545 4.165 9.377 5.926 11.031 4.474 14.756 9.271 15.672 14.981.882 4.916-.213 8.105-.38 8.581z"></path>
    </symbol>

    <symbol id="react" viewBox="0 0 128 128">
        <path fill="aliceblue" d="M107.3 45.2c-2.2-.8-4.5-1.6-6.9-2.3.6-2.4 1.1-4.8 1.5-7.1 2.1-13.2-.2-22.5-6.6-26.1-1.9-1.1-4-1.6-6.4-1.6-7 0-15.9 5.2-24.9 13.9-9-8.7-17.9-13.9-24.9-13.9-2.4 0-4.5.5-6.4 1.6-6.4 3.7-8.7 13-6.6 26.1.4 2.3.9 4.7 1.5 7.1-2.4.7-4.7 1.4-6.9 2.3-12.5 4.8-19.3 11.4-19.3 18.8s6.9 14 19.3 18.8c2.2.8 4.5 1.6 6.9 2.3-.6 2.4-1.1 4.8-1.5 7.1-2.1 13.2.2 22.5 6.6 26.1 1.9 1.1 4 1.6 6.4 1.6 7.1 0 16-5.2 24.9-13.9 9 8.7 17.9 13.9 24.9 13.9 2.4 0 4.5-.5 6.4-1.6 6.4-3.7 8.7-13 6.6-26.1-.4-2.3-.9-4.7-1.5-7.1 2.4-.7 4.7-1.4 6.9-2.3 12.5-4.8 19.3-11.4 19.3-18.8s-6.8-14-19.3-18.8zm-14.8-30.5c4.1 2.4 5.5 9.8 3.8 20.3-.3 2.1-.8 4.3-1.4 6.6-5.2-1.2-10.7-2-16.5-2.5-3.4-4.8-6.9-9.1-10.4-13 7.4-7.3 14.9-12.3 21-12.3 1.3 0 2.5.3 3.5.9zm-11.2 59.3c-1.8 3.2-3.9 6.4-6.1 9.6-3.7.3-7.4.4-11.2.4-3.9 0-7.6-.1-11.2-.4-2.2-3.2-4.2-6.4-6-9.6-1.9-3.3-3.7-6.7-5.3-10 1.6-3.3 3.4-6.7 5.3-10 1.8-3.2 3.9-6.4 6.1-9.6 3.7-.3 7.4-.4 11.2-.4 3.9 0 7.6.1 11.2.4 2.2 3.2 4.2 6.4 6 9.6 1.9 3.3 3.7 6.7 5.3 10-1.7 3.3-3.4 6.6-5.3 10zm8.3-3.3c1.5 3.5 2.7 6.9 3.8 10.3-3.4.8-7 1.4-10.8 1.9 1.2-1.9 2.5-3.9 3.6-6 1.2-2.1 2.3-4.2 3.4-6.2zm-25.6 27.1c-2.4-2.6-4.7-5.4-6.9-8.3 2.3.1 4.6.2 6.9.2 2.3 0 4.6-.1 6.9-.2-2.2 2.9-4.5 5.7-6.9 8.3zm-18.6-15c-3.8-.5-7.4-1.1-10.8-1.9 1.1-3.3 2.3-6.8 3.8-10.3 1.1 2 2.2 4.1 3.4 6.1 1.2 2.2 2.4 4.1 3.6 6.1zm-7-25.5c-1.5-3.5-2.7-6.9-3.8-10.3 3.4-.8 7-1.4 10.8-1.9-1.2 1.9-2.5 3.9-3.6 6-1.2 2.1-2.3 4.2-3.4 6.2zm25.6-27.1c2.4 2.6 4.7 5.4 6.9 8.3-2.3-.1-4.6-.2-6.9-.2-2.3 0-4.6.1-6.9.2 2.2-2.9 4.5-5.7 6.9-8.3zm22.2 21l-3.6-6c3.8.5 7.4 1.1 10.8 1.9-1.1 3.3-2.3 6.8-3.8 10.3-1.1-2.1-2.2-4.2-3.4-6.2zm-54.5-16.2c-1.7-10.5-.3-17.9 3.8-20.3 1-.6 2.2-.9 3.5-.9 6 0 13.5 4.9 21 12.3-3.5 3.8-7 8.2-10.4 13-5.8.5-11.3 1.4-16.5 2.5-.6-2.3-1-4.5-1.4-6.6zm-24.7 29c0-4.7 5.7-9.7 15.7-13.4 2-.8 4.2-1.5 6.4-2.1 1.6 5 3.6 10.3 6 15.6-2.4 5.3-4.5 10.5-6 15.5-13.8-4-22.1-10-22.1-15.6zm28.5 49.3c-4.1-2.4-5.5-9.8-3.8-20.3.3-2.1.8-4.3 1.4-6.6 5.2 1.2 10.7 2 16.5 2.5 3.4 4.8 6.9 9.1 10.4 13-7.4 7.3-14.9 12.3-21 12.3-1.3 0-2.5-.3-3.5-.9zm60.8-20.3c1.7 10.5.3 17.9-3.8 20.3-1 .6-2.2.9-3.5.9-6 0-13.5-4.9-21-12.3 3.5-3.8 7-8.2 10.4-13 5.8-.5 11.3-1.4 16.5-2.5.6 2.3 1 4.5 1.4 6.6zm9-15.6c-2 .8-4.2 1.5-6.4 2.1-1.6-5-3.6-10.3-6-15.6 2.4-5.3 4.5-10.5 6-15.5 13.8 4 22.1 10 22.1 15.6 0 4.7-5.8 9.7-15.7 13.4z"></path>
    </symbol>

    <symbol id="nodejs" viewBox="0 0 128 128">
        <path fill="aliceblue" d="M112.771 30.334l-44.097-25.605c-2.781-1.584-6.402-1.584-9.205 0l-44.568 25.605c-2.87 1.651-4.901 4.754-4.901 8.073v51.142c0 3.319 2.084 6.423 4.954 8.083l11.775 6.688c5.628 2.772 7.617 2.772 10.178 2.772 8.333 0 13.093-5.039 13.093-13.828v-50.49c0-.713-.371-1.774-1.071-1.774h-5.623c-.712 0-2.306 1.061-2.306 1.773v50.49c0 3.896-3.524 7.773-10.11 4.48l-12.167-7.013c-.424-.23-.723-.693-.723-1.181v-51.142c0-.482.555-.966.982-1.213l44.424-25.561c.415-.235 1.025-.235 1.439 0l43.882 25.555c.42.253.272.722.272 1.219v51.142c0 .488.183.963-.232 1.198l-44.086 25.576c-.378.227-.847.227-1.261 0l-11.307-6.749c-.341-.198-.746-.269-1.073-.086-3.146 1.783-3.726 2.02-6.677 3.043-.726.253-1.797.692.41 1.929l14.798 8.754c1.417.82 3.027 1.246 4.647 1.246 1.642 0 3.25-.426 4.667-1.246l43.885-25.582c2.87-1.672 4.23-4.764 4.23-8.083v-51.142c0-3.319-1.36-6.414-4.229-8.073zM77.91 81.445c-11.726 0-14.309-3.235-15.17-9.066-.1-.628-.633-1.379-1.272-1.379h-5.731c-.709 0-1.279.86-1.279 1.566 0 7.466 4.059 16.512 23.453 16.512 14.039 0 22.088-5.455 22.088-15.109 0-9.572-6.467-12.084-20.082-13.886-13.762-1.819-15.16-2.738-15.16-5.962 0-2.658 1.184-6.203 11.374-6.203 9.105 0 12.461 1.954 13.842 8.091.118.577.645.991 1.24.991h5.754c.354 0 .692-.143.94-.396.24-.272.367-.613.335-.979-.891-10.568-7.912-15.493-22.112-15.493-12.631 0-20.166 5.334-20.166 14.275 0 9.698 7.497 12.378 19.622 13.577 14.505 1.422 15.633 3.542 15.633 6.395 0 4.955-3.978 7.066-13.309 7.066z"></path>
    </symbol>
    
    <symbol id="css" viewBox="0 0 128 128">
        <path fill="aliceblue" d="M8.76 1l10.055 112.883 45.118 12.58 45.244-12.626 10.063-112.837h-110.48zm89.591 25.862l-3.347 37.605.01.203-.014.467v-.004l-2.378 26.294-.262 2.336-28.36 7.844v.001l-.022.019-28.311-7.888-1.917-21.739h13.883l.985 11.054 15.386 4.17-.004.008v-.002l15.443-4.229 1.632-18.001h-32.282999999999994l-.277-3.043-.631-7.129-.331-3.828h34.748999999999995l1.264-14h-52.926l-.277-3.041-.63-7.131-.332-3.828h69.281l-.331 3.862z"></path>
    </symbol>

    <symbol id="html" viewBox="0 0 128 128">
        <path fill="aliceblue" d="M9.032 2l10.005 112.093 44.896 12.401 45.02-12.387 10.015-112.107h-109.936zm89.126 26.539l-.627 7.172-.276 3.289h-52.665000000000006l1.257 14h50.156000000000006l-.336 3.471-3.233 36.119-.238 2.27-28.196 7.749v.002l-.034.018-28.177-7.423-1.913-21.206h13.815000000000001l.979 10.919 15.287 4.081h.043v-.546l15.355-3.875 1.604-17.579h-47.698l-3.383-38.117-.329-3.883h68.939l-.33 3.539z"></path>
    </symbol>

    <symbol id="git" viewBox="0 0 128 128">
        <path fill="aliceblue" d="M124.737 58.378l-55.116-55.114c-3.172-3.174-8.32-3.174-11.497 0l-11.444 11.446 14.518 14.518c3.375-1.139 7.243-.375 9.932 2.314 2.703 2.706 3.461 6.607 2.294 9.993l13.992 13.993c3.385-1.167 7.292-.413 9.994 2.295 3.78 3.777 3.78 9.9 0 13.679-3.78 3.78-9.901 3.78-13.683 0-2.842-2.844-3.545-7.019-2.105-10.521l-13.048-13.048-.002 34.341c.922.455 1.791 1.063 2.559 1.828 3.778 3.777 3.778 9.898 0 13.683-3.779 3.777-9.904 3.777-13.679 0-3.778-3.784-3.778-9.905 0-13.683.934-.933 2.014-1.638 3.167-2.11v-34.659c-1.153-.472-2.231-1.172-3.167-2.111-2.862-2.86-3.551-7.06-2.083-10.576l-14.313-14.313-37.792 37.79c-3.175 3.177-3.175 8.325 0 11.5l55.117 55.114c3.174 3.174 8.32 3.174 11.499 0l54.858-54.858c3.174-3.176 3.174-8.327-.001-11.501z"></path>
    </symbol>

    <symbol id="figma" viewBox="0 0 384 512">
        <path fill="aliceblue" d="M277 170.7A85.35 85.35 0 0 0 277 0H106.3a85.3 85.3 0 0 0 0 170.6 85.35 85.35 0 0 0 0 170.7 85.35 85.35 0 1 0 85.3 85.4v-256zm0 0a85.3 85.3 0 1 0 85.3 85.3 85.31 85.31 0 0 0-85.3-85.3z"></path>
    </symbol>

    <symbol id="github" viewBox="0 0 64 64">
        <path fill="aliceblue" d="M32,6c-14.359,0 -26,11.641 -26,26c0,12.277 8.512,22.56 19.955,25.286c-0.592,-0.141 -1.179,-0.299 -1.755,-0.479v-5.957c0,0 -0.975,0.325 -2.275,0.325c-3.637,0 -5.148,-3.245 -5.525,-4.875c-0.229,-0.993 -0.827,-1.934 -1.469,-2.509c-0.767,-0.684 -1.126,-0.686 -1.131,-0.92c-0.01,-0.491 0.658,-0.471 0.975,-0.471c1.625,0 2.857,1.729 3.429,2.623c1.417,2.207 2.938,2.577 3.721,2.577c0.975,0 1.817,-0.146 2.397,-0.426c0.268,-1.888 1.108,-3.57 2.478,-4.774c-6.097,-1.219 -10.4,-4.716 -10.4,-10.4c0,-2.928 1.175,-5.619 3.133,-7.792c-0.2,-0.567 -0.533,-1.714 -0.533,-3.583c0,-1.235 0.086,-2.751 0.65,-4.225c0,0 3.708,0.026 7.205,3.338c1.614,-0.47 3.341,-0.738 5.145,-0.738c1.804,0 3.531,0.268 5.145,0.738c3.497,-3.312 7.205,-3.338 7.205,-3.338c0.567,1.474 0.65,2.99 0.65,4.225c0,2.015 -0.268,3.19 -0.432,3.697c1.898,2.153 3.032,4.802 3.032,7.678c0,5.684 -4.303,9.181 -10.4,10.4c1.628,1.43 2.6,3.513 2.6,5.85v8.557c-0.576,0.181 -1.162,0.338 -1.755,0.479c11.443,-2.726 19.955,-13.009 19.955,-25.286c0,-14.359 -11.641,-26 -26,-26zM33.813,57.93c-0.599,0.042 -1.203,0.07 -1.813,0.07c0.61,0 1.213,-0.029 1.813,-0.07zM37.786,57.346c-1.164,0.265 -2.357,0.451 -3.575,0.554c1.218,-0.103 2.411,-0.29 3.575,-0.554zM32,58c-0.61,0 -1.214,-0.028 -1.813,-0.07c0.6,0.041 1.203,0.07 1.813,0.07zM29.788,57.9c-1.217,-0.103 -2.411,-0.289 -3.574,-0.554c1.164,0.264 2.357,0.451 3.574,0.554z"></path>
    </symbol>

    <symbol id="vercel" viewBox="0 0 76 65">
        <path fill="aliceblue" d="M37.5274 0L75.0548 65H0L37.5274 0Z" />
    </symbol>

    <symbol id="netlify" viewBox="0 0 24 24">
        <path fill="aliceblue" d="M16.934 8.519a1.044 1.044 0 0 1 .303.23l2.349-1.045-2.192-2.171-.491 2.954zM12.06 6.546a1.305 1.305 0 0 1 .209.574l3.497 1.482a1.044 1.044 0 0 1 .355-.177l.574-3.55-2.13-2.234-2.505 3.852v.053zm11.933 5.491l-3.748-3.748-2.548 1.044 6.264 2.662s.053.042.032.042zm-.627.606l-6.013-2.569a1.044 1.044 0 0 1-.7.407l-.647 3.957a1.044 1.044 0 0 1 .303.731l3.633.762 3.33-3.31v-.062zM15.4 9.25L12.132 7.86a1.2 1.2 0 0 1-1.044.543h-.199L8.185 12.58l7.225-3.132v.01a.887.887 0 0 1 0-.167.052.052 0 0 0-.01-.041zm3.967 7.308l-3.195-.658a1.096 1.096 0 0 1-.46.344l-.761 4.72 4.437-4.396s-.01.02-.021.02zm-4.469-.324a1.044 1.044 0 0 1-.616-.71l-5.95-1.222-.084.136 5.398 7.81.323-.324.919-5.67s.031.022.01.011zm-6.441-2.652l5.878 1.211a1.044 1.044 0 0 1 .824-.522l.637-3.894-.135-.115-7.308 3.132a1.817 1.817 0 0 1 .104.188zm-2.464.981l-.125-.125-2.537 1.044 1.232 1.222 1.399-2.172zm1.67.397a1.368 1.368 0 0 1-.563.125 1.389 1.389 0 0 1-.45-.073l-1.544 2.245 6.765 6.702 1.19-1.18zm-.95-2.641a1.702 1.702 0 0 1 .314 0 1.378 1.378 0 0 1 .344 0l2.735-4.25a1.19 1.19 0 0 1-.334-.824 1.242 1.242 0 0 1 0-.271l-3.32-1.535-2.672 2.6zm.303-7.402l3.237 1.378a1.242 1.242 0 0 1 .835-.282 1.357 1.357 0 0 1 .397.063l2.526-3.947L11.923.041 7.016 4.854s-.01.052 0 .063zm-1.21 8.164a1.566 1.566 0 0 1 .24-.334L3.278 8.613 0 11.797l5.804 1.284zm-.262.7L.533 12.735l2.203 2.235 2.777-1.18z"/>
    </symbol>

    <symbol id="nodejs" viewBox="0 0 128 128">
    </symbol>
  </defs>
</svg>
